PathFileType	4	(X/Y/Z)	 s09c0103.trc
DataRate	CameraRate	NumFrames	NumMarkers	Units	OrigDataRate	OrigDataStartFrame	OrigNumFrames
200	200	4	50	mm	200	751	2000
Frame#	Time	racr			lacr			c7			jug			rlel			rdr			llel			ldr			s2			lic			ric			lasi			rasi			rpsi			lpsi			rgt			lgt			rth1			rth2			rth3			rth4			rlfc			rmfc			rsh1			rsh2			rsh3			rsh4			rlmal			rmmal			rcal			rtoe			rmt5			lth1			lth2			lth4			lth3			llfc			lmfc			llmal			lmmal			lcal			lmt5			lsh1			lsh2			lsh3			lsh4			ltoe			SBIKE			LBIKE			RBIKE			
		X1	Y1	Z1	X2	Y2	Z2	X3	Y3	Z3	X4	Y4	Z4	X5	Y5	Z5	X6	Y6	Z6	X7	Y7	Z7	X8	Y8	Z8	X9	Y9	Z9	X10	Y10	Z10	X11	Y11	Z11	X12	Y12	Z12	X13	Y13	Z13	X14	Y14	Z14	X15	Y15	Z15	X16	Y16	Z16	X17	Y17	Z17	X18	Y18	Z18	X19	Y19	Z19	X20	Y20	Z20	X21	Y21	Z21	X22	Y22	Z22	X23	Y23	Z23	X24	Y24	Z24	X25	Y25	Z25	X26	Y26	Z26	X27	Y27	Z27	X28	Y28	Z28	X29	Y29	Z29	X30	Y30	Z30	X31	Y31	Z31	X32	Y32	Z32	X33	Y33	Z33	X34	Y34	Z34	X35	Y35	Z35	X36	Y36	Z36	X37	Y37	Z37	X38	Y38	Z38	X39	Y39	Z39	X40	Y40	Z40	X41	Y41	Z41	X42	Y42	Z42	X43	Y43	Z43	X44	Y44	Z44	X45	Y45	Z45	X46	Y46	Z46	X47	Y47	Z47	X48	Y48	Z48	X49	Y49	Z49	X50	Y50	Z50	
751	3.7550	541.842740	1250.030901	-129.256915	493.962727	1197.140252	-447.212165	498.696106	1277.762466	-291.499576	469.528744	1148.532636	-266.297809	508.860136	1025.786935	-3.478412	701.135957	875.313055	-54.080307	435.557058	928.340817	-486.164237	681.460823	886.089784	-436.373018	9.178939	1130.578439	-201.980321	121.988631	1141.555488	-366.774401	160.185492	1119.165939	-66.776365	171.630796	1088.080408	-346.717580	201.514087	1069.754391	-96.014063	45.926726	1155.868361	-145.083639	29.113306	1171.183640	-249.748062	133.838407	967.051392	-36.155764	115.951428	1056.112919	-413.308245	211.798752	854.316765	-51.327596	273.765926	791.951290	-58.624681	290.309825	705.984912	-73.609233	302.267050	807.808693	-75.622170	321.808226	614.424808	-107.421347	303.756527	597.106502	-204.742876	272.529112	528.894863	-73.323452	265.163303	440.282810	-84.776833	214.811886	368.266771	-81.555601	287.181386	434.760841	-117.687614	175.189071	272.317555	-77.509849	177.286383	279.137487	-154.899975	92.590537	267.793533	-117.153621	322.355367	135.256699	-129.429547	245.229362	159.765486	-61.921396	245.092282	1004.299044	-406.627610	329.092568	998.051438	-394.149780	339.192212	1026.225946	-369.599816	404.824758	948.879329	-399.017738	485.282728	882.095555	-383.038979	495.906452	861.739605	-282.288597	272.988588	577.677012	-406.663031	286.646762	584.846036	-331.504181	191.967476	549.428537	-367.839924	353.947842	486.293469	-430.293858	430.556983	801.021604	-407.725771	398.353469	720.023646	-403.165289	328.425418	665.201063	-406.043115	420.230632	705.368042	-374.428479	448.063923	492.434826	-363.460176	-64.958727	852.188109	-236.951873	20.881366	85.686062	-441.999578	21.091291	84.181793	-43.632108	
752	3.7600	541.728790	1248.733026	-129.673352	494.203179	1195.946281	-447.564845	498.851581	1276.992498	-291.985930	468.935479	1147.481567	-267.560508	508.269596	1024.699660	-3.636031	700.967756	875.140955	-53.913946	435.148399	927.384217	-486.621183	681.260261	886.246912	-436.729669	9.206369	1131.625541	-203.092687	120.262692	1142.134768	-364.802003	159.663526	1119.708022	-67.327607	171.801228	1089.183491	-347.208306	201.086944	1070.293163	-96.316856	45.662597	1156.657029	-146.129671	28.660102	1172.620419	-250.424804	133.685509	967.897310	-37.204644	115.718089	1056.466966	-413.828528	213.597517	855.333933	-53.338860	276.315844	794.014912	-60.396298	294.196125	708.458841	-75.762953	304.774982	810.495511	-76.896251	326.032379	616.641753	-109.365257	306.222696	599.736903	-206.971830	274.617520	532.274416	-74.927311	264.476679	443.879128	-86.190990	212.086654	373.308467	-82.363192	286.065693	437.700977	-119.342027	169.637864	278.476796	-77.859691	171.425681	284.542084	-155.168017	86.650457	276.183676	-117.305747	312.451434	136.910925	-129.397885	236.078325	163.862024	-61.900834	244.651858	1002.214058	-407.371282	328.643463	995.170855	-395.199665	339.091815	1023.552486	-371.046425	403.788531	945.227267	-399.860291	484.283334	878.370481	-383.792978	494.866909	857.367341	-283.566098	278.027833	568.951153	-407.127117	291.217726	576.803899	-331.871276	197.672388	537.660315	-368.574172	362.455327	481.397933	-430.764197	430.920614	795.516821	-408.401573	400.531968	714.104850	-404.131964	331.491031	657.767969	-406.589573	421.721205	699.732364	-373.563374	455.995072	492.071855	-363.608486	-64.927767	852.207672	-236.942516	20.900026	85.710760	-442.014630	21.082681	84.190286	-43.640557	
753	3.7650	541.503613	1247.377991	-129.796133	494.578962	1194.981036	-447.865333	498.965448	1276.330784	-292.114571	468.450013	1146.473388	-268.667477	507.446782	1023.498614	-3.826999	700.792169	874.970503	-53.837357	434.663514	926.512079	-487.050635	681.026966	886.345477	-436.957527	9.218403	1132.562433	-204.303248	120.487232	1143.383078	-365.269097	158.914439	1120.149081	-67.985924	171.948552	1090.312743	-347.818553	200.730521	1070.690309	-96.698665	45.550002	1157.405414	-147.133205	23.522132	1176.009528	-249.885384	133.681522	968.642347	-38.264875	115.432984	1056.193197	-414.366896	215.793560	856.961191	-54.283508	279.249934	796.658701	-62.073694	298.340925	711.032958	-78.183321	307.278284	813.394379	-79.599460	330.634423	618.891332	-111.335853	309.077054	602.698983	-208.761074	276.889779	535.780490	-76.459458	263.648638	447.941742	-87.738523	209.585956	378.824559	-83.205711	286.069188	440.878352	-120.448272	164.407010	285.167436	-78.010559	165.437344	290.756018	-155.627458	81.295248	284.889061	-117.445964	302.905579	139.168650	-129.075321	227.246837	168.458632	-61.869815	244.148308	999.276980	-408.494443	328.280096	991.083659	-396.340409	339.027123	1019.946342	-372.855715	403.292388	940.133366	-400.082488	484.002562	872.836341	-384.277258	493.371616	853.382582	-283.736948	282.972475	559.265062	-407.535256	296.474546	567.825134	-331.199334	203.449850	524.903131	-369.264418	370.580751	475.825274	-431.292228	430.847108	789.180335	-409.230090	402.144995	706.777704	-404.515964	334.252919	649.146840	-407.284274	423.505209	693.183005	-374.028238	463.397436	490.941216	-363.803119	-64.907688	852.217536	-236.952428	20.916646	85.802757	-441.946894	21.094690	84.185281	-43.632540	
754	3.7700	541.116008	1245.956419	-129.606096	495.033767	1194.194993	-448.070130	499.003494	1275.728299	-291.955577	467.973258	1145.486567	-269.635956	506.508286	1022.024077	-3.912784	700.439258	874.820659	-53.794840	434.174501	925.689377	-487.447953	680.742038	886.403773	-437.056363	9.220960	1133.264682	-205.572977	120.693982	1144.289901	-365.898457	158.307342	1120.525802	-68.689344	172.210008	1091.215462	-348.566221	200.280779	1070.883162	-97.049640	45.353774	1157.943207	-148.250894	23.906542	1176.701612	-250.902089	133.800045	969.530033	-39.270334	115.085068	1055.063812	-414.848383	218.260061	858.522000	-55.469521	282.428726	799.344220	-64.199064	302.769966	713.820254	-80.094300	310.009832	816.517779	-81.999929	335.387242	621.291930	-113.310842	312.110138	605.639034	-210.048014	279.270790	539.536055	-77.898691	263.410909	452.099845	-88.946472	207.392864	384.586046	-83.981295	284.967175	443.895486	-122.762327	159.592407	292.339416	-78.380380	161.172162	297.685183	-156.186168	76.452083	294.362389	-117.542965	293.535865	142.256834	-128.758581	218.843088	173.224913	-62.063297	243.581899	995.524089	-409.758814	327.602944	986.388288	-397.936237	339.011022	1015.365806	-375.133351	402.266118	934.000158	-400.184718	482.589756	866.470343	-385.103221	491.983338	847.675253	-284.634437	287.870411	548.597826	-407.839670	300.528855	557.983284	-332.199145	209.120062	511.122565	-369.876347	378.345709	469.471372	-431.698045	430.485052	781.564110	-410.202400	403.352688	698.586646	-405.276966	336.690069	639.671973	-407.983648	425.030245	685.884076	-374.641063	470.247433	489.166262	-364.099523	-64.892583	852.193373	-236.980627	20.911999	85.658078	-441.982457	21.110868	84.185280	-43.618981	
